<svg width="427" height="427" viewBox="0 0 427 427" fill="none" xmlns="http://www.w3.org/2000/svg">
<rect width="427" height="427" fill="black"/>
<path d="M77.3232 397C67.8694 397 59.577 395.101 52.4461 391.304C45.3152 387.452 39.778 382.109 35.8344 375.273C31.9448 368.438 30 360.544 30 351.593C30 342.533 31.9448 334.694 35.8344 328.076C39.778 321.403 45.3152 316.222 52.4461 312.533C59.577 308.844 67.8694 307 77.3232 307C84.4001 307 90.6667 308.058 96.1229 310.174C101.579 312.235 106.144 314.975 109.817 318.392C113.491 321.81 116.273 325.553 118.164 329.622C120.055 333.691 121 337.732 121 341.747C121 341.801 121 341.91 121 342.072C121 342.181 121 342.289 121 342.398H96.1229C96.1229 342.072 96.0959 341.774 96.0418 341.503C96.0418 341.177 95.9878 340.852 95.8798 340.526C95.4476 338.248 94.5022 336.105 93.0436 334.098C91.585 332.09 89.5322 330.463 86.8851 329.215C84.2921 327.913 81.0508 327.262 77.1612 327.262C73.0015 327.262 69.274 328.184 65.9786 330.029C62.7373 331.873 60.1713 334.613 58.2805 338.248C56.3897 341.828 55.4443 346.277 55.4443 351.593C55.4443 356.801 56.3897 361.304 58.2805 365.101C60.1713 368.844 62.7373 371.72 65.9786 373.727C69.274 375.734 73.0015 376.738 77.1612 376.738C81.4289 376.738 84.9133 376.087 87.6144 374.785C90.3155 373.429 92.3413 371.638 93.6919 369.414C95.0424 367.136 95.8528 364.64 96.1229 361.928H121C121 365.942 120.055 370.038 118.164 374.215C116.327 378.338 113.572 382.109 109.898 385.526C106.279 388.944 101.741 391.711 96.285 393.826C90.8287 395.942 84.5082 397 77.3232 397Z" fill="white"/>
<path d="M178.592 395V361.573C178.592 358.374 178.592 355.609 178.592 353.277C178.592 350.892 178.592 348.913 178.592 347.34C178.592 345.117 178.457 342.921 178.188 340.752C177.972 338.583 177.434 336.577 176.571 334.734C175.763 332.836 174.497 331.345 172.772 330.261C171.048 329.122 168.704 328.553 165.74 328.553C162.991 328.553 160.62 329.149 158.626 330.342C156.633 331.481 154.989 333.08 153.696 335.14C152.456 337.147 151.54 339.478 150.947 342.135C150.355 344.738 150.058 347.476 150.058 350.349L143.187 344.656C143.187 337.336 144.508 330.857 147.148 325.218C149.789 319.525 153.534 315.079 158.384 311.88C163.288 308.627 169.081 307 175.763 307C182.93 307 188.508 308.545 192.495 311.636C196.537 314.672 199.366 318.739 200.983 323.835C202.653 328.878 203.489 334.463 203.489 340.59C203.489 342.921 203.489 346.066 203.489 350.024C203.489 353.982 203.489 358.726 203.489 364.257V395H178.592ZM125 395V308.627H150.058V395H125ZM231.942 395V361.654C231.942 358.347 231.942 355.5 231.942 353.115C231.942 350.729 231.942 348.75 231.942 347.177C231.942 344.792 231.807 342.514 231.538 340.346C231.268 338.123 230.702 336.116 229.84 334.327C228.978 332.538 227.685 331.128 225.96 330.098C224.236 329.068 221.892 328.553 218.928 328.553C216.179 328.553 213.808 329.149 211.814 330.342C209.874 331.481 208.285 333.053 207.045 335.059C205.806 337.065 204.89 339.343 204.297 341.891C203.758 344.439 203.489 347.096 203.489 349.861L196.618 344.25C196.618 337.038 197.911 330.64 200.498 325.055C203.138 319.471 206.857 315.079 211.653 311.88C216.503 308.627 222.296 307 229.032 307C236.037 307 241.561 308.491 245.603 311.473C249.698 314.455 252.608 318.441 254.333 323.429C256.111 328.363 257 333.893 257 340.02C257 342.46 257 345.605 257 349.455C257 353.304 257 357.994 257 363.525V395H231.942Z" fill="white"/>
<path d="M349.048 65.6133H397V98.1289H349.048V222H316.565V98.1289H270.16V65.6133H316.565V30H349.048V65.6133Z" fill="white"/>
</svg>
